<svg version="1.1" viewBox="0.0 0.0 960.0 188.9763779527559" fill="none" stroke="none" stroke-linecap="square" stroke-miterlimit="10" xmlns:xlink="http://www.w3.org/1999/xlink" xmlns="http://www.w3.org/2000/svg"><clipPath id="g2494c91944f_0_0.0"><path d="m0 0l960.0 0l0 188.97638l-960.0 0l0 -188.97638z" clip-rule="nonzero"/></clipPath><g clip-path="url(#g2494c91944f_0_0.0)"><path fill="#ffffff" d="m0 0l960.0 0l0 188.97638l-960.0 0z" fill-rule="evenodd"/><path fill="#000000" d="m1.0498687E-6 -2.1548556E-4l960.0 0l0 188.97638l-960.0 0z" fill-rule="evenodd"/><path fill="#ffffff" d="m420.22644 111.19197l0 -33.203125l12.46875 0q3.796875 0 6.09375 1.015625q2.3125 1.0 3.609375 3.09375q1.296875 2.09375 1.296875 4.375q0 2.140625 -1.15625 4.015625q-1.15625 1.875 -3.484375 3.03125q3.015625 0.890625 4.625 3.015625q1.625 2.125 1.625 5.03125q0 2.328125 -0.984375 4.34375q-0.984375 2.0 -2.4375 3.09375q-1.4375 1.078125 -3.625 1.640625q-2.1875 0.546875 -5.359375 0.546875l-12.671875 0zm4.40625 -19.25l7.171875 0q2.921875 0 4.1875 -0.390625q1.6875 -0.5 2.53125 -1.65625q0.84375 -1.15625 0.84375 -2.890625q0 -1.65625 -0.796875 -2.90625q-0.78125 -1.265625 -2.25 -1.71875q-1.46875 -0.46875 -5.0625 -0.46875l-6.625 0l0 10.03125zm0 15.328125l8.265625 0q2.125 0 2.984375 -0.15625q1.515625 -0.265625 2.53125 -0.90625q1.03125 -0.640625 1.6875 -1.84375q0.65625 -1.21875 0.65625 -2.796875q0 -1.859375 -0.953125 -3.21875q-0.953125 -1.375 -2.640625 -1.921875q-1.6875 -0.5625 -4.859375 -0.5625l-7.671875 0l0 11.40625zm23.082825 3.921875l12.75 -33.203125l4.734375 0l13.59375 33.203125l-5.015625 0l-3.875 -10.0625l-13.875 0l-3.65625 10.0625l-4.65625 0zm9.578125 -13.640625l11.25 0l-3.453125 -9.1875q-1.59375 -4.203125 -2.359375 -6.890625q-0.640625 3.1875 -1.796875 6.34375l-3.640625 9.734375zm23.50467 2.96875l4.15625 -0.359375q0.296875 2.484375 1.359375 4.09375q1.078125 1.59375 3.34375 2.578125q2.265625 0.984375 5.09375 0.984375q2.515625 0 4.4375 -0.75q1.9375 -0.75 2.875 -2.046875q0.9375 -1.296875 0.9375 -2.84375q0 -1.5625 -0.90625 -2.71875q-0.90625 -1.171875 -2.984375 -1.96875q-1.34375 -0.515625 -5.921875 -1.609375q-4.5625 -1.109375 -6.40625 -2.078125q-2.375 -1.25 -3.546875 -3.09375q-1.15625 -1.84375 -1.15625 -4.140625q0 -2.515625 1.421875 -4.703125q1.421875 -2.1875 4.15625 -3.3125q2.75 -1.140625 6.109375 -1.140625q3.6875 0 6.5 1.203125q2.828125 1.1875 4.34375 3.5q1.515625 2.296875 1.625 5.21875l-4.203125 0.328125q-0.34375 -3.15625 -2.3125 -4.765625q-1.953125 -1.609375 -5.78125 -1.609375q-3.984375 0 -5.8125 1.46875q-1.8125 1.453125 -1.8125 3.515625q0 1.796875 1.28125 2.953125q1.265625 1.15625 6.625 2.375q5.359375 1.203125 7.359375 2.109375q2.890625 1.328125 4.265625 3.390625q1.390625 2.046875 1.390625 4.71875q0 2.640625 -1.515625 5.0q-1.515625 2.34375 -4.359375 3.640625q-2.84375 1.296875 -6.40625 1.296875q-4.5 0 -7.546875 -1.3125q-3.046875 -1.3125 -4.78125 -3.953125q-1.734375 -2.640625 -1.828125 -5.96875zm32.582794 10.671875l0 -33.203125l4.390625 0l0 13.625l17.265625 0l0 -13.625l4.390625 0l0 33.203125l-4.390625 0l0 -15.65625l-17.265625 0l0 15.65625l-4.390625 0z" fill-rule="nonzero"/></g></svg>