<svg version="1.1" viewBox="0.0 0.0 960.0 188.9763779527559" fill="none" stroke="none" stroke-linecap="square" stroke-miterlimit="10" xmlns:xlink="http://www.w3.org/1999/xlink" xmlns="http://www.w3.org/2000/svg"><clipPath id="g230b9335807_0_36.0"><path d="m0 0l960.0 0l0 188.97638l-960.0 0l0 -188.97638z" clip-rule="nonzero"/></clipPath><g clip-path="url(#g230b9335807_0_36.0)"><path fill="#ffffff" d="m0 0l960.0 0l0 188.97638l-960.0 0z" fill-rule="evenodd"/><path fill="#000000" d="m1.0498687E-6 -2.1548556E-4l960.0 0l0 188.97638l-960.0 0z" fill-rule="evenodd"/><path fill="#ffffff" d="m369.48813 111.19197l-3.78125 0l0 -33.203125l4.078125 0l0 11.84375q2.578125 -3.234375 6.59375 -3.234375q2.21875 0 4.203125 0.890625q1.984375 0.890625 3.265625 2.515625q1.28125 1.609375 2.0 3.90625q0.71875 2.28125 0.71875 4.890625q0 6.1875 -3.0625 9.5625q-3.046875 3.375 -7.328125 3.375q-4.265625 0 -6.6875 -3.5625l0 3.015625zm-0.046875 -12.203125q0 4.328125 1.1875 6.25q1.921875 3.140625 5.203125 3.140625q2.671875 0 4.625 -2.3125q1.953125 -2.328125 1.953125 -6.921875q0 -4.71875 -1.875 -6.953125q-1.875 -2.25 -4.515625 -2.25q-2.671875 0 -4.625 2.328125q-1.953125 2.3125 -1.953125 6.71875zm28.769012 12.203125l-9.140625 -24.0625l4.296875 0l5.171875 14.40625q0.828125 2.34375 1.53125 4.859375q0.546875 -1.90625 1.515625 -4.578125l5.359375 -14.6875l4.1875 0l-9.109375 24.0625l-3.8125 0zm16.539062 -28.515625l0 -4.6875l4.078125 0l0 4.6875l-4.078125 0zm0 28.515625l0 -24.0625l4.078125 0l0 24.0625l-4.078125 0zm10.869019 0l0 -33.203125l14.734375 0q4.4375 0 6.75 0.890625q2.3125 0.890625 3.6875 3.15625q1.375 2.265625 1.375 5.015625q0 3.53125 -2.28125 5.953125q-2.28125 2.421875 -7.0625 3.078125q1.734375 0.84375 2.640625 1.65625q1.9375 1.765625 3.65625 4.421875l5.765625 9.03125l-5.515625 0l-4.40625 -6.90625q-1.921875 -3.0 -3.171875 -4.578125q-1.234375 -1.578125 -2.21875 -2.21875q-0.984375 -0.640625 -2.015625 -0.890625q-0.734375 -0.15625 -2.4375 -0.15625l-5.09375 0l0 14.75l-4.40625 0zm4.40625 -18.546875l9.4375 0q3.015625 0 4.703125 -0.625q1.703125 -0.625 2.59375 -1.984375q0.890625 -1.375 0.890625 -2.984375q0 -2.359375 -1.71875 -3.875q-1.703125 -1.515625 -5.40625 -1.515625l-10.5 0l0 10.984375zm44.986206 10.796875l4.203125 0.53125q-0.984375 3.6875 -3.6875 5.734375q-2.703125 2.03125 -6.890625 2.03125q-5.28125 0 -8.375 -3.25q-3.078125 -3.25 -3.078125 -9.125q0 -6.0625 3.125 -9.40625q3.125 -3.359375 8.109375 -3.359375q4.828125 0 7.875 3.28125q3.0625 3.28125 3.0625 9.234375q0 0.375 -0.015625 1.09375l-17.953125 0q0.234375 3.96875 2.25 6.078125q2.015625 2.09375 5.03125 2.09375q2.234375 0 3.8125 -1.171875q1.59375 -1.1875 2.53125 -3.765625zm-13.390625 -6.59375l13.4375 0q-0.28125 -3.03125 -1.546875 -4.546875q-1.953125 -2.359375 -5.046875 -2.359375q-2.8125 0 -4.734375 1.890625q-1.90625 1.875 -2.109375 5.015625zm38.409637 11.375q-2.265625 1.921875 -4.359375 2.71875q-2.09375 0.796875 -4.484375 0.796875q-3.96875 0 -6.109375 -1.9375q-2.125 -1.9375 -2.125 -4.953125q0 -1.765625 0.796875 -3.21875q0.8125 -1.46875 2.109375 -2.34375q1.3125 -0.890625 2.9375 -1.34375q1.203125 -0.3125 3.625 -0.609375q4.9375 -0.59375 7.28125 -1.40625q0.015625 -0.84375 0.015625 -1.0625q0 -2.5 -1.15625 -3.515625q-1.5625 -1.375 -4.640625 -1.375q-2.875 0 -4.25 1.015625q-1.375 1.0 -2.03125 3.546875l-3.984375 -0.53125q0.546875 -2.5625 1.78125 -4.140625q1.25 -1.578125 3.609375 -2.421875q2.359375 -0.84375 5.46875 -0.84375q3.078125 0 5.0 0.71875q1.921875 0.71875 2.828125 1.828125q0.90625 1.09375 1.265625 2.765625q0.203125 1.046875 0.203125 3.765625l0 5.4375q0 5.6875 0.265625 7.203125q0.265625 1.5 1.03125 2.875l-4.25 0q-0.640625 -1.265625 -0.828125 -2.96875zm-0.328125 -9.109375q-2.21875 0.90625 -6.671875 1.546875q-2.515625 0.359375 -3.5625 0.8125q-1.03125 0.453125 -1.59375 1.328125q-0.5625 0.875 -0.5625 1.9375q0 1.625 1.234375 2.71875q1.234375 1.078125 3.609375 1.078125q2.359375 0 4.1875 -1.03125q1.828125 -1.03125 2.703125 -2.8125q0.65625 -1.375 0.65625 -4.078125l0 -1.5zm26.050262 12.078125l0 -3.03125q-2.296875 3.578125 -6.734375 3.578125q-2.875 0 -5.296875 -1.578125q-2.40625 -1.59375 -3.734375 -4.4375q-1.328125 -2.84375 -1.328125 -6.53125q0 -3.609375 1.203125 -6.53125q1.203125 -2.9375 3.59375 -4.5q2.40625 -1.5625 5.375 -1.5625q2.1875 0 3.875 0.921875q1.703125 0.90625 2.765625 2.375l0 -11.90625l4.0625 0l0 33.203125l-3.78125 0zm-12.890625 -12.0q0 4.609375 1.9375 6.90625q1.953125 2.28125 4.609375 2.28125q2.671875 0 4.53125 -2.1875q1.875 -2.1875 1.875 -6.671875q0 -4.9375 -1.90625 -7.234375q-1.90625 -2.3125 -4.6875 -2.3125q-2.71875 0 -4.546875 2.21875q-1.8125 2.21875 -1.8125 7.0zm23.456543 12.0l0 -33.203125l6.625 0l7.859375 23.515625q1.078125 3.28125 1.578125 4.90625q0.5625 -1.8125 1.765625 -5.328125l7.953125 -23.09375l5.90625 0l0 33.203125l-4.234375 0l0 -27.796875l-9.640625 27.796875l-3.96875 0l-9.609375 -28.265625l0 28.265625l-4.234375 0zm54.737488 -7.75l4.203125 0.53125q-0.984375 3.6875 -3.6875 5.734375q-2.703125 2.03125 -6.890625 2.03125q-5.28125 0 -8.375 -3.25q-3.078125 -3.25 -3.078125 -9.125q0 -6.0625 3.125 -9.40625q3.125 -3.359375 8.109375 -3.359375q4.828125 0 7.875 3.28125q3.0625 3.28125 3.0625 9.234375q0 0.375 -0.015625 1.09375l-17.953125 0q0.234375 3.96875 2.25 6.078125q2.015625 2.09375 5.03125 2.09375q2.234375 0 3.8125 -1.171875q1.59375 -1.1875 2.53125 -3.765625zm-13.390625 -6.59375l13.4375 0q-0.28125 -3.03125 -1.546875 -4.546875q-1.953125 -2.359375 -5.046875 -2.359375q-2.8125 0 -4.734375 1.890625q-1.90625 1.875 -2.109375 5.015625z" fill-rule="nonzero"/></g></svg>