<svg version="1.1" viewBox="0.0 0.0 960.0 188.9763779527559" fill="none" stroke="none" stroke-linecap="square" stroke-miterlimit="10" xmlns:xlink="http://www.w3.org/1999/xlink" xmlns="http://www.w3.org/2000/svg"><clipPath id="g230b9335807_0_40.0"><path d="m0 0l960.0 0l0 188.97638l-960.0 0l0 -188.97638z" clip-rule="nonzero"/></clipPath><g clip-path="url(#g230b9335807_0_40.0)"><path fill="#ffffff" d="m0 0l960.0 0l0 188.97638l-960.0 0z" fill-rule="evenodd"/><path fill="#000000" d="m1.0498687E-6 -2.1548556E-4l960.0 0l0 188.97638l-960.0 0z" fill-rule="evenodd"/><path fill="#ffffff" d="m349.49152 111.19197l0 -33.203125l11.4375 0q3.875 0 5.921875 0.46875q2.84375 0.65625 4.859375 2.375q2.625 2.21875 3.921875 5.6875q1.3125 3.453125 1.3125 7.890625q0 3.78125 -0.890625 6.703125q-0.875 2.921875 -2.265625 4.84375q-1.375 1.90625 -3.015625 3.015625q-1.640625 1.09375 -3.96875 1.65625q-2.3125 0.5625 -5.328125 0.5625l-11.984375 0zm4.390625 -3.921875l7.09375 0q3.28125 0 5.140625 -0.609375q1.875 -0.609375 3.0 -1.71875q1.5625 -1.5625 2.421875 -4.203125q0.875 -2.640625 0.875 -6.40625q0 -5.203125 -1.71875 -8.0q-1.703125 -2.796875 -4.140625 -3.75q-1.765625 -0.671875 -5.6875 -0.671875l-6.984375 0l0 25.359375zm44.28308 0.953125q-2.265625 1.921875 -4.359375 2.71875q-2.09375 0.796875 -4.484375 0.796875q-3.96875 0 -6.109375 -1.9375q-2.125 -1.9375 -2.125 -4.953125q0 -1.765625 0.796875 -3.21875q0.8125 -1.46875 2.109375 -2.34375q1.3125 -0.890625 2.9375 -1.34375q1.203125 -0.3125 3.625 -0.609375q4.9375 -0.59375 7.28125 -1.40625q0.015625 -0.84375 0.015625 -1.0625q0 -2.5 -1.15625 -3.515625q-1.5625 -1.375 -4.640625 -1.375q-2.875 0 -4.25 1.015625q-1.375 1.0 -2.03125 3.546875l-3.984375 -0.53125q0.546875 -2.5625 1.78125 -4.140625q1.25 -1.578125 3.609375 -2.421875q2.359375 -0.84375 5.46875 -0.84375q3.078125 0 5.0 0.71875q1.921875 0.71875 2.828125 1.828125q0.90625 1.09375 1.265625 2.765625q0.203125 1.046875 0.203125 3.765625l0 5.4375q0 5.6875 0.265625 7.203125q0.265625 1.5 1.03125 2.875l-4.25 0q-0.640625 -1.265625 -0.828125 -2.96875zm-0.328125 -9.109375q-2.21875 0.90625 -6.671875 1.546875q-2.515625 0.359375 -3.5625 0.8125q-1.03125 0.453125 -1.59375 1.328125q-0.5625 0.875 -0.5625 1.9375q0 1.625 1.234375 2.71875q1.234375 1.078125 3.609375 1.078125q2.359375 0 4.1875 -1.03125q1.828125 -1.03125 2.703125 -2.8125q0.65625 -1.375 0.65625 -4.078125l0 -1.5zm19.331512 8.4375l0.59375 3.59375q-1.71875 0.359375 -3.078125 0.359375q-2.21875 0 -3.453125 -0.703125q-1.21875 -0.703125 -1.71875 -1.84375q-0.484375 -1.140625 -0.484375 -4.8125l0 -13.84375l-3.0 0l0 -3.171875l3.0 0l0 -5.953125l4.046875 -2.4375l0 8.390625l4.09375 0l0 3.171875l-4.09375 0l0 14.078125q0 1.734375 0.21875 2.234375q0.21875 0.5 0.703125 0.796875q0.484375 0.296875 1.390625 0.296875q0.671875 0 1.78125 -0.15625zm19.6857 0.671875q-2.265625 1.921875 -4.359375 2.71875q-2.09375 0.796875 -4.484375 0.796875q-3.96875 0 -6.109375 -1.9375q-2.125 -1.9375 -2.125 -4.953125q0 -1.765625 0.796875 -3.21875q0.8125 -1.46875 2.109375 -2.34375q1.3125 -0.890625 2.9375 -1.34375q1.203125 -0.3125 3.625 -0.609375q4.9375 -0.59375 7.28125 -1.40625q0.015625 -0.84375 0.015625 -1.0625q0 -2.5 -1.15625 -3.515625q-1.5625 -1.375 -4.640625 -1.375q-2.875 0 -4.25 1.015625q-1.375 1.0 -2.03125 3.546875l-3.984375 -0.53125q0.546875 -2.5625 1.78125 -4.140625q1.25 -1.578125 3.609375 -2.421875q2.359375 -0.84375 5.46875 -0.84375q3.078125 0 5.0 0.71875q1.921875 0.71875 2.828125 1.828125q0.90625 1.09375 1.265625 2.765625q0.203125 1.046875 0.203125 3.765625l0 5.4375q0 5.6875 0.265625 7.203125q0.265625 1.5 1.03125 2.875l-4.25 0q-0.640625 -1.265625 -0.828125 -2.96875zm-0.328125 -9.109375q-2.21875 0.90625 -6.671875 1.546875q-2.515625 0.359375 -3.5625 0.8125q-1.03125 0.453125 -1.59375 1.328125q-0.5625 0.875 -0.5625 1.9375q0 1.625 1.234375 2.71875q1.234375 1.078125 3.609375 1.078125q2.359375 0 4.1875 -1.03125q1.828125 -1.03125 2.703125 -2.8125q0.65625 -1.375 0.65625 -4.078125l0 -1.5zm21.689056 4.890625l4.03125 -0.625q0.34375 2.421875 1.890625 3.71875q1.5625 1.28125 4.34375 1.28125q2.8125 0 4.171875 -1.140625q1.359375 -1.140625 1.359375 -2.6875q0 -1.375 -1.203125 -2.171875q-0.84375 -0.546875 -4.171875 -1.375q-4.484375 -1.140625 -6.21875 -1.96875q-1.734375 -0.828125 -2.625 -2.28125q-0.890625 -1.46875 -0.890625 -3.234375q0 -1.609375 0.734375 -2.96875q0.734375 -1.375 2.0 -2.28125q0.953125 -0.703125 2.59375 -1.1875q1.640625 -0.484375 3.53125 -0.484375q2.828125 0 4.96875 0.8125q2.140625 0.8125 3.15625 2.203125q1.015625 1.390625 1.40625 3.734375l-3.984375 0.53125q-0.28125 -1.84375 -1.578125 -2.890625q-1.296875 -1.046875 -3.671875 -1.046875q-2.8125 0 -4.015625 0.9375q-1.203125 0.921875 -1.203125 2.171875q0 0.796875 0.5 1.421875q0.5 0.65625 1.5625 1.09375q0.609375 0.21875 3.59375 1.03125q4.328125 1.15625 6.03125 1.90625q1.71875 0.734375 2.6875 2.140625q0.984375 1.390625 0.984375 3.484375q0 2.03125 -1.1875 3.84375q-1.1875 1.796875 -3.4375 2.78125q-2.234375 0.984375 -5.078125 0.984375q-4.6875 0 -7.140625 -1.953125q-2.453125 -1.953125 -3.140625 -5.78125zm40.523438 -1.625l4.015625 0.515625q-0.65625 4.15625 -3.375 6.5q-2.703125 2.34375 -6.640625 2.34375q-4.9375 0 -7.9375 -3.21875q-3.0 -3.234375 -3.0 -9.265625q0 -3.890625 1.28125 -6.8125q1.296875 -2.921875 3.9375 -4.375q2.640625 -1.46875 5.75 -1.46875q3.90625 0 6.390625 1.984375q2.5 1.96875 3.203125 5.625l-3.953125 0.609375q-0.578125 -2.421875 -2.015625 -3.640625q-1.4375 -1.234375 -3.46875 -1.234375q-3.078125 0 -5.015625 2.21875q-1.921875 2.203125 -1.921875 6.984375q0 4.84375 1.859375 7.046875q1.859375 2.1875 4.84375 2.1875q2.40625 0 4.015625 -1.46875q1.609375 -1.46875 2.03125 -4.53125zm7.5234375 -19.703125l0 -4.6875l4.078125 0l0 4.6875l-4.078125 0zm0 28.515625l0 -24.0625l4.078125 0l0 24.0625l-4.078125 0zm26.759613 -7.75l4.203125 0.53125q-0.984375 3.6875 -3.6875 5.734375q-2.703125 2.03125 -6.890625 2.03125q-5.28125 0 -8.375 -3.25q-3.078125 -3.25 -3.078125 -9.125q0 -6.0625 3.125 -9.40625q3.125 -3.359375 8.109375 -3.359375q4.828125 0 7.875 3.28125q3.0625 3.28125 3.0625 9.234375q0 0.375 -0.015625 1.09375l-17.953125 0q0.234375 3.96875 2.25 6.078125q2.015625 2.09375 5.03125 2.09375q2.234375 0 3.8125 -1.171875q1.59375 -1.1875 2.53125 -3.765625zm-13.390625 -6.59375l13.4375 0q-0.28125 -3.03125 -1.546875 -4.546875q-1.953125 -2.359375 -5.046875 -2.359375q-2.8125 0 -4.734375 1.890625q-1.90625 1.875 -2.109375 5.015625zm22.722168 14.34375l0 -24.0625l3.671875 0l0 3.421875q2.640625 -3.953125 7.65625 -3.953125q2.171875 0 3.984375 0.78125q1.828125 0.78125 2.734375 2.046875q0.90625 1.265625 1.265625 3.015625q0.234375 1.125 0.234375 3.953125l0 14.796875l-4.078125 0l0 -14.640625q0 -2.484375 -0.484375 -3.71875q-0.46875 -1.234375 -1.6875 -1.96875q-1.203125 -0.734375 -2.84375 -0.734375q-2.59375 0 -4.484375 1.65625q-1.890625 1.640625 -1.890625 6.265625l0 13.140625l-4.078125 0zm41.487793 -8.8125l4.015625 0.515625q-0.65625 4.15625 -3.375 6.5q-2.703125 2.34375 -6.640625 2.34375q-4.9375 0 -7.9375 -3.21875q-3.0 -3.234375 -3.0 -9.265625q0 -3.890625 1.28125 -6.8125q1.296875 -2.921875 3.9375 -4.375q2.640625 -1.46875 5.75 -1.46875q3.90625 0 6.390625 1.984375q2.5 1.96875 3.203125 5.625l-3.953125 0.609375q-0.578125 -2.421875 -2.015625 -3.640625q-1.4375 -1.234375 -3.46875 -1.234375q-3.078125 0 -5.015625 2.21875q-1.921875 2.203125 -1.921875 6.984375q0 4.84375 1.859375 7.046875q1.859375 2.1875 4.84375 2.1875q2.40625 0 4.015625 -1.46875q1.609375 -1.46875 2.03125 -4.53125zm23.976562 1.0625l4.203125 0.53125q-0.984375 3.6875 -3.6875 5.734375q-2.703125 2.03125 -6.890625 2.03125q-5.28125 0 -8.375 -3.25q-3.078125 -3.25 -3.078125 -9.125q0 -6.0625 3.125 -9.40625q3.125 -3.359375 8.109375 -3.359375q4.828125 0 7.875 3.28125q3.0625 3.28125 3.0625 9.234375q0 0.375 -0.015625 1.09375l-17.953125 0q0.234375 3.96875 2.25 6.078125q2.015625 2.09375 5.03125 2.09375q2.234375 0 3.8125 -1.171875q1.59375 -1.1875 2.53125 -3.765625zm-13.390625 -6.59375l13.4375 0q-0.28125 -3.03125 -1.546875 -4.546875q-1.953125 -2.359375 -5.046875 -2.359375q-2.8125 0 -4.734375 1.890625q-1.90625 1.875 -2.109375 5.015625z" fill-rule="nonzero"/></g></svg>