<svg version="1.1" viewBox="0.0 0.0 960.0 188.9763779527559" fill="none" stroke="none" stroke-linecap="square" stroke-miterlimit="10" xmlns:xlink="http://www.w3.org/1999/xlink" xmlns="http://www.w3.org/2000/svg"><clipPath id="g230b9335807_0_44.0"><path d="m0 0l960.0 0l0 188.97638l-960.0 0l0 -188.97638z" clip-rule="nonzero"/></clipPath><g clip-path="url(#g230b9335807_0_44.0)"><path fill="#ffffff" d="m0 0l960.0 0l0 188.97638l-960.0 0z" fill-rule="evenodd"/><path fill="#000000" d="m1.0498687E-6 -2.1548556E-4l960.0 0l0 188.97638l-960.0 0z" fill-rule="evenodd"/><path fill="#ffffff" d="m196.15439 111.19197l0 -33.203125l24.015625 0l0 3.921875l-19.625 0l0 10.15625l18.375 0l0 3.90625l-18.375 0l0 11.296875l20.390625 0l0 3.921875l-24.78125 0zm30.33281 0l0 -24.0625l3.671875 0l0 3.421875q2.640625 -3.953125 7.65625 -3.953125q2.171875 0 3.984375 0.78125q1.828125 0.78125 2.734375 2.046875q0.90625 1.265625 1.265625 3.015625q0.234375 1.125 0.234375 3.953125l0 14.796875l-4.078125 0l0 -14.640625q0 -2.484375 -0.484375 -3.71875q-0.46875 -1.234375 -1.6875 -1.96875q-1.203125 -0.734375 -2.84375 -0.734375q-2.59375 0 -4.484375 1.65625q-1.890625 1.640625 -1.890625 6.265625l0 13.140625l-4.078125 0zm41.409653 0l0 -3.03125q-2.296875 3.578125 -6.734375 3.578125q-2.875 0 -5.2968903 -1.578125q-2.40625 -1.59375 -3.734375 -4.4375q-1.328125 -2.84375 -1.328125 -6.53125q0 -3.609375 1.203125 -6.53125q1.203125 -2.9375 3.59375 -4.5q2.4062653 -1.5625 5.3750153 -1.5625q2.1875 0 3.875 0.921875q1.703125 0.90625 2.765625 2.375l0 -11.90625l4.0625 0l0 33.203125l-3.78125 0zm-12.89064 -12.0q0 4.609375 1.9375153 6.90625q1.953125 2.28125 4.609375 2.28125q2.671875 0 4.53125 -2.1875q1.875 -2.1875 1.875 -6.671875q0 -4.9375 -1.90625 -7.234375q-1.90625 -2.3125 -4.6875 -2.3125q-2.71875 0 -4.546875 2.21875q-1.8125153 2.21875 -1.8125153 7.0zm34.454697 -0.03125q0 -6.671875 3.703125 -9.890625q3.109375 -2.671875 7.578125 -2.671875q4.953125 0 8.09375 3.25q3.15625 3.25 3.15625 8.96875q0 4.65625 -1.390625 7.3125q-1.390625 2.65625 -4.0625 4.140625q-2.65625 1.46875 -5.796875 1.46875q-5.0625 0 -8.171875 -3.234375q-3.109375 -3.25 -3.109375 -9.34375zm4.1875 0q0 4.625 2.015625 6.921875q2.015625 2.296875 5.078125 2.296875q3.03125 0 5.046875 -2.3125q2.015625 -2.3125 2.015625 -7.03125q0 -4.46875 -2.03125 -6.765625q-2.03125 -2.296875 -5.03125 -2.296875q-3.0625 0 -5.078125 2.28125q-2.015625 2.28125 -2.015625 6.90625zm24.097137 12.03125l0 -20.890625l-3.59375 0l0 -3.171875l3.59375 0l0 -2.546875q0 -2.4375 0.4375 -3.609375q0.578125 -1.578125 2.0625 -2.5625q1.484375 -1.0 4.15625 -1.0q1.71875 0 3.8125 0.421875l-0.609375 3.546875q-1.28125 -0.21875 -2.40625 -0.21875q-1.859375 0 -2.625 0.796875q-0.765625 0.78125 -0.765625 2.953125l0 2.21875l4.6875 0l0 3.171875l-4.6875 0l0 20.890625l-4.0625 0zm33.699493 -3.640625l0.59375 3.59375q-1.71875 0.359375 -3.078125 0.359375q-2.21875 0 -3.453125 -0.703125q-1.21875 -0.703125 -1.71875 -1.84375q-0.484375 -1.140625 -0.484375 -4.8125l0 -13.84375l-3.0 0l0 -3.171875l3.0 0l0 -5.953125l4.046875 -2.4375l0 8.390625l4.09375 0l0 3.171875l-4.09375 0l0 14.078125q0 1.734375 0.21875 2.234375q0.21875 0.5 0.703125 0.796875q0.484375 0.296875 1.390625 0.296875q0.671875 0 1.78125 -0.15625zm3.9981995 3.640625l0 -33.203125l4.078125 0l0 11.90625q2.84375 -3.296875 7.203125 -3.296875q2.671875 0 4.640625 1.046875q1.96875 1.046875 2.8125 2.90625q0.859375 1.859375 0.859375 5.390625l0 15.25l-4.078125 0l0 -15.25q0 -3.046875 -1.328125 -4.4375q-1.328125 -1.40625 -3.75 -1.40625q-1.8125 0 -3.40625 0.953125q-1.59375 0.9375 -2.28125 2.546875q-0.671875 1.609375 -0.671875 4.4375l0 13.15625l-4.078125 0zm42.268982 -7.75l4.203125 0.53125q-0.984375 3.6875 -3.6875 5.734375q-2.703125 2.03125 -6.890625 2.03125q-5.28125 0 -8.375 -3.25q-3.078125 -3.25 -3.078125 -9.125q0 -6.0625 3.125 -9.40625q3.125 -3.359375 8.109375 -3.359375q4.828125 0 7.875 3.28125q3.0625 3.28125 3.0625 9.234375q0 0.375 -0.015625 1.09375l-17.953125 0q0.234375 3.96875 2.25 6.078125q2.015625 2.09375 5.03125 2.09375q2.234375 0 3.8125 -1.171875q1.59375 -1.1875 2.53125 -3.765625zm-13.390625 -6.59375l13.4375 0q-0.28125 -3.03125 -1.546875 -4.546875q-1.953125 -2.359375 -5.046875 -2.359375q-2.8125 0 -4.734375 1.890625q-1.90625 1.875 -2.109375 5.015625zm35.610962 23.5625l0 -33.28125l3.703125 0l0 3.125q1.328125 -1.828125 2.96875 -2.734375q1.65625 -0.921875 4.015625 -0.921875q3.078125 0 5.4375 1.59375q2.359375 1.578125 3.546875 4.46875q1.203125 2.875 1.203125 6.328125q0 3.6875 -1.328125 6.640625q-1.3125 2.953125 -3.84375 4.53125q-2.53125 1.578125 -5.3125 1.578125q-2.03125 0 -3.65625 -0.859375q-1.625 -0.859375 -2.65625 -2.171875l0 11.703125l-4.078125 0zm3.6875 -21.109375q0 4.640625 1.875 6.859375q1.890625 2.21875 4.5625 2.21875q2.71875 0 4.65625 -2.296875q1.9375 -2.296875 1.9375 -7.125q0 -4.59375 -1.90625 -6.875q-1.890625 -2.296875 -4.515625 -2.296875q-2.59375 0 -4.609375 2.4375q-2.0 2.4375 -2.0 7.078125zm37.800262 8.921875q-2.265625 1.921875 -4.359375 2.71875q-2.09375 0.796875 -4.484375 0.796875q-3.96875 0 -6.109375 -1.9375q-2.125 -1.9375 -2.125 -4.953125q0 -1.765625 0.796875 -3.21875q0.8125 -1.46875 2.109375 -2.34375q1.3125 -0.890625 2.9375 -1.34375q1.203125 -0.3125 3.625 -0.609375q4.9375 -0.59375 7.28125 -1.40625q0.015625 -0.84375 0.015625 -1.0625q0 -2.5 -1.15625 -3.515625q-1.5625 -1.375 -4.640625 -1.375q-2.875 0 -4.25 1.015625q-1.375 1.0 -2.03125 3.546875l-3.984375 -0.53125q0.546875 -2.5625 1.78125 -4.140625q1.25 -1.578125 3.609375 -2.421875q2.359375 -0.84375 5.46875 -0.84375q3.078125 0 5.0 0.71875q1.921875 0.71875 2.828125 1.828125q0.90625 1.09375 1.265625 2.765625q0.203125 1.046875 0.203125 3.765625l0 5.4375q0 5.6875 0.265625 7.203125q0.265625 1.5 1.03125 2.875l-4.25 0q-0.640625 -1.265625 -0.828125 -2.96875zm-0.328125 -9.109375q-2.21875 0.90625 -6.671875 1.546875q-2.515625 0.359375 -3.5625 0.8125q-1.03125 0.453125 -1.59375 1.328125q-0.5625 0.875 -0.5625 1.9375q0 1.625 1.234375 2.71875q1.234375 1.078125 3.609375 1.078125q2.359375 0 4.1875 -1.03125q1.828125 -1.03125 2.703125 -2.8125q0.65625 -1.375 0.65625 -4.078125l0 -1.5zm10.394012 12.078125l0 -24.0625l3.671875 0l0 3.65625q1.40625 -2.5625 2.59375 -3.375q1.1875 -0.8125 2.609375 -0.8125q2.0625 0 4.1875 1.3125l-1.40625 3.78125q-1.484375 -0.890625 -2.984375 -0.890625q-1.328125 0 -2.40625 0.8125q-1.0625 0.796875 -1.515625 2.234375q-0.671875 2.171875 -0.671875 4.75l0 12.59375l-4.078125 0zm24.385956 -3.640625l0.59375 3.59375q-1.71875 0.359375 -3.078125 0.359375q-2.21875 0 -3.453125 -0.703125q-1.21875 -0.703125 -1.71875 -1.84375q-0.484375 -1.140625 -0.484375 -4.8125l0 -13.84375l-3.0 0l0 -3.171875l3.0 0l0 -5.953125l4.046875 -2.4375l0 8.390625l4.09375 0l0 3.171875l-4.09375 0l0 14.078125q0 1.734375 0.21875 2.234375q0.21875 0.5 0.703125 0.796875q0.484375 0.296875 1.390625 0.296875q0.671875 0 1.78125 -0.15625zm3.810669 12.90625l-0.453125 -3.828125q1.34375 0.359375 2.328125 0.359375q1.359375 0 2.171875 -0.453125q0.828125 -0.453125 1.34375 -1.265625q0.390625 -0.609375 1.25 -3.03125q0.109375 -0.34375 0.359375 -1.0l-9.125 -24.109375l4.390625 0l5.0 13.9375q0.984375 2.65625 1.75 5.578125q0.703125 -2.8125 1.671875 -5.484375l5.1406555 -14.03125l4.078125 0l-9.1406555 24.46875q-1.484375 3.96875 -2.296875 5.453125q-1.078125 2.015625 -2.484375 2.953125q-1.40625 0.953125 -3.359375 0.953125q-1.171875 0 -2.625 -0.5zm38.443512 -17.515625l-1.25 -17.59375l0 -7.359375l5.046875 0l0 7.359375l-1.171875 17.59375l-2.625 0zm-1.0625 8.25l0 -4.640625l4.6875 0l0 4.640625l-4.6875 0zm18.983032 0l12.75 -33.203125l4.734375 0l13.59375 33.203125l-5.015625 0l-3.875 -10.0625l-13.875 0l-3.65625 10.0625l-4.65625 0zm9.578125 -13.640625l11.25 0l-3.453125 -9.1875q-1.59375 -4.203125 -2.359375 -6.890625q-0.640625 3.1875 -1.796875 6.34375l-3.640625 9.734375zm40.25476 13.640625l0 -3.53125q-2.8125 4.078125 -7.640625 4.078125q-2.125 0 -3.96875 -0.8125q-1.84375 -0.828125 -2.75 -2.0625q-0.890625 -1.234375 -1.25 -3.015625q-0.25 -1.203125 -0.25 -3.8125l0 -14.90625l4.078125 0l0 13.34375q0 3.203125 0.25 4.3125q0.375 1.609375 1.625 2.53125q1.25 0.90625 3.078125 0.90625q1.84375 0 3.453125 -0.9375q1.609375 -0.9375 2.265625 -2.5625q0.671875 -1.625 0.671875 -4.703125l0 -12.890625l4.078125 0l0 24.0625l-3.640625 0zm22.876587 0l0 -24.0625l3.671875 0l0 3.65625q1.40625 -2.5625 2.59375 -3.375q1.1875 -0.8125 2.609375 -0.8125q2.0625 0 4.1875 1.3125l-1.40625 3.78125q-1.484375 -0.890625 -2.984375 -0.890625q-1.328125 0 -2.40625 0.8125q-1.0625 0.796875 -1.515625 2.234375q-0.671875 2.171875 -0.671875 4.75l0 12.59375l-4.078125 0zm31.96399 -7.75l4.203125 0.53125q-0.984375 3.6875 -3.6875 5.734375q-2.703125 2.03125 -6.890625 2.03125q-5.28125 0 -8.375 -3.25q-3.078125 -3.25 -3.078125 -9.125q0 -6.0625 3.125 -9.40625q3.125 -3.359375 8.109375 -3.359375q4.828125 0 7.875 3.28125q3.0625 3.28125 3.0625 9.234375q0 0.375 -0.015625 1.09375l-17.953125 0q0.234375 3.96875 2.25 6.078125q2.015625 2.09375 5.03125 2.09375q2.234375 0 3.8125 -1.171875q1.59375 -1.1875 2.53125 -3.765625zm-13.390625 -6.59375l13.4375 0q-0.28125 -3.03125 -1.546875 -4.546875q-1.953125 -2.359375 -5.046875 -2.359375q-2.8125 0 -4.734375 1.890625q-1.90625 1.875 -2.109375 5.015625zm29.394043 14.34375l-9.140625 -24.0625l4.296875 0l5.171875 14.40625q0.828125 2.34375 1.53125 4.859375q0.546875 -1.90625 1.515625 -4.578125l5.359375 -14.6875l4.1875 0l-9.109375 24.0625l-3.8125 0zm15.0078125 -12.03125q0 -6.671875 3.703125 -9.890625q3.109375 -2.671875 7.578125 -2.671875q4.953125 0 8.09375 3.25q3.15625 3.25 3.15625 8.96875q0 4.65625 -1.390625 7.3125q-1.390625 2.65625 -4.0625 4.140625q-2.65625 1.46875 -5.796875 1.46875q-5.0625 0 -8.171875 -3.234375q-3.109375 -3.25 -3.109375 -9.34375zm4.1875 0q0 4.625 2.015625 6.921875q2.015625 2.296875 5.078125 2.296875q3.03125 0 5.046875 -2.3125q2.015625 -2.3125 2.015625 -7.03125q0 -4.46875 -2.03125 -6.765625q-2.03125 -2.296875 -5.03125 -2.296875q-3.0625 0 -5.078125 2.28125q-2.015625 2.28125 -2.015625 6.90625zm23.144043 -16.484375l0 -4.6875l4.078125 0l0 4.6875l-4.078125 0zm0 28.515625l0 -24.0625l4.078125 0l0 24.0625l-4.078125 0zm10.244019 0l0 -24.0625l3.671875 0l0 3.65625q1.40625 -2.5625 2.59375 -3.375q1.1875 -0.8125 2.609375 -0.8125q2.0625 0 4.1875 1.3125l-1.40625 3.78125q-1.484375 -0.890625 -2.984375 -0.890625q-1.328125 0 -2.40625 0.8125q-1.0625 0.796875 -1.515625 2.234375q-0.671875 2.171875 -0.671875 4.75l0 12.59375l-4.078125 0zm30.555908 -8.25l-1.25 -17.59375l0 -7.359375l5.046875 0l0 7.359375l-1.171875 17.59375l-2.625 0zm-1.0625 8.25l0 -4.640625l4.6875 0l0 4.640625l-4.6875 0z" fill-rule="nonzero"/></g></svg>