<svg version="1.1" viewBox="0.0 0.0 960.0 188.9763779527559" fill="none" stroke="none" stroke-linecap="square" stroke-miterlimit="10" xmlns:xlink="http://www.w3.org/1999/xlink" xmlns="http://www.w3.org/2000/svg"><clipPath id="g230b9335807_0_12.0"><path d="m0 0l960.0 0l0 188.97638l-960.0 0l0 -188.97638z" clip-rule="nonzero"/></clipPath><g clip-path="url(#g230b9335807_0_12.0)"><path fill="#ffffff" d="m0 0l960.0 0l0 188.97638l-960.0 0z" fill-rule="evenodd"/><path fill="#000000" d="m1.0498687E-6 -2.1548556E-4l960.0 0l0 188.97638l-960.0 0z" fill-rule="evenodd"/><path fill="#ffffff" d="m469.4853 98.16072l0 -3.890625l14.0625 -0.015625l0 12.3125q-3.234375 2.59375 -6.6875 3.890625q-3.4375 1.296875 -7.0625 1.296875q-4.890625 0 -8.890625 -2.09375q-4.0 -2.09375 -6.046875 -6.046875q-2.03125 -3.96875 -2.03125 -8.859375q0 -4.859375 2.03125 -9.0625q2.03125 -4.203125 5.828125 -6.234375q3.8125 -2.046875 8.765625 -2.046875q3.609375 0 6.515625 1.171875q2.90625 1.171875 4.5625 3.265625q1.65625 2.078125 2.515625 5.421875l-3.96875 1.09375q-0.75 -2.546875 -1.859375 -3.984375q-1.109375 -1.453125 -3.171875 -2.328125q-2.0625 -0.875 -4.5625 -0.875q-3.015625 0 -5.21875 0.921875q-2.203125 0.921875 -3.546875 2.421875q-1.34375 1.484375 -2.09375 3.265625q-1.265625 3.09375 -1.265625 6.6875q0 4.4375 1.53125 7.4375q1.53125 2.984375 4.453125 4.4375q2.921875 1.453125 6.203125 1.453125q2.859375 0 5.5625 -1.09375q2.71875 -1.109375 4.125 -2.359375l0 -6.1875l-9.75 0zm20.037231 -15.484375l0 -4.6875l4.078125 0l0 4.6875l-4.078125 0zm0 28.515625l0 -24.0625l4.078125 0l0 24.0625l-4.078125 0zm19.181519 -3.640625l0.59375 3.59375q-1.71875 0.359375 -3.078125 0.359375q-2.21875 0 -3.453125 -0.703125q-1.21875 -0.703125 -1.71875 -1.84375q-0.484375 -1.140625 -0.484375 -4.8125l0 -13.84375l-3.0 0l0 -3.171875l3.0 0l0 -5.953125l4.046875 -2.4375l0 8.390625l4.09375 0l0 3.171875l-4.09375 0l0 14.078125q0 1.734375 0.21875 2.234375q0.21875 0.5 0.703125 0.796875q0.484375 0.296875 1.390625 0.296875q0.671875 0 1.78125 -0.15625z" fill-rule="nonzero"/></g></svg>