<svg version="1.1" viewBox="0.0 0.0 960.0 188.9763779527559" fill="none" stroke="none" stroke-linecap="square" stroke-miterlimit="10" xmlns:xlink="http://www.w3.org/1999/xlink" xmlns="http://www.w3.org/2000/svg"><clipPath id="g23904628212_0_0.0"><path d="m0 0l960.0 0l0 188.97638l-960.0 0l0 -188.97638z" clip-rule="nonzero"/></clipPath><g clip-path="url(#g23904628212_0_0.0)"><path fill="#ffffff" d="m0 0l960.0 0l0 188.97638l-960.0 0z" fill-rule="evenodd"/><path fill="#000000" d="m1.0498687E-6 -2.1548556E-4l960.0 0l0 188.97638l-960.0 0z" fill-rule="evenodd"/><path fill="#ffffff" d="m445.6617 111.19197l0 -33.203125l4.390625 0l0 33.203125l-4.390625 0zm12.138824 0l0 -33.203125l11.4375 0q3.875 0 5.921875 0.46875q2.84375 0.65625 4.859375 2.375q2.625 2.21875 3.921875 5.6875q1.3125 3.453125 1.3125 7.890625q0 3.78125 -0.890625 6.703125q-0.875 2.921875 -2.265625 4.84375q-1.375 1.90625 -3.015625 3.015625q-1.640625 1.09375 -3.96875 1.65625q-2.3125 0.5625 -5.328125 0.5625l-11.984375 0zm4.390625 -3.921875l7.09375 0q3.28125 0 5.140625 -0.609375q1.875 -0.609375 3.0 -1.71875q1.5625 -1.5625 2.421875 -4.203125q0.875 -2.640625 0.875 -6.40625q0 -5.203125 -1.71875 -8.0q-1.703125 -2.796875 -4.140625 -3.75q-1.765625 -0.671875 -5.6875 -0.671875l-6.984375 0l0 25.359375zm29.204956 3.921875l0 -33.203125l24.015625 0l0 3.921875l-19.625 0l0 10.15625l18.375 0l0 3.90625l-18.375 0l0 11.296875l20.390625 0l0 3.921875l-24.78125 0z" fill-rule="nonzero"/></g></svg>