<svg version="1.1" viewBox="0.0 0.0 960.0 188.9763779527559" fill="none" stroke="none" stroke-linecap="square" stroke-miterlimit="10" xmlns:xlink="http://www.w3.org/1999/xlink" xmlns="http://www.w3.org/2000/svg"><clipPath id="g230b9335807_0_24.0"><path d="m0 0l960.0 0l0 188.97638l-960.0 0l0 -188.97638z" clip-rule="nonzero"/></clipPath><g clip-path="url(#g230b9335807_0_24.0)"><path fill="#ffffff" d="m0 0l960.0 0l0 188.97638l-960.0 0z" fill-rule="evenodd"/><path fill="#000000" d="m1.0498687E-6 -2.1548556E-4l960.0 0l0 188.97638l-960.0 0z" fill-rule="evenodd"/><path fill="#ffffff" d="m328.94098 111.19197l0 -33.203125l14.734375 0q4.4375 0 6.75 0.890625q2.3125 0.890625 3.6875 3.15625q1.375 2.265625 1.375 5.015625q0 3.53125 -2.28125 5.953125q-2.28125 2.421875 -7.0625 3.078125q1.734375 0.84375 2.640625 1.65625q1.9375 1.765625 3.65625 4.421875l5.765625 9.03125l-5.515625 0l-4.40625 -6.90625q-1.921875 -3.0 -3.171875 -4.578125q-1.234375 -1.578125 -2.21875 -2.21875q-0.984375 -0.640625 -2.015625 -0.890625q-0.734375 -0.15625 -2.4375 -0.15625l-5.09375 0l0 14.75l-4.40625 0zm4.40625 -18.546875l9.4375 0q3.015625 0 4.703125 -0.625q1.703125 -0.625 2.59375 -1.984375q0.890625 -1.375 0.890625 -2.984375q0 -2.359375 -1.71875 -3.875q-1.703125 -1.515625 -5.40625 -1.515625l-10.5 0l0 10.984375zm26.876831 11.359375l4.03125 -0.625q0.34375 2.421875 1.890625 3.71875q1.5625 1.28125 4.34375 1.28125q2.8125 0 4.171875 -1.140625q1.359375 -1.140625 1.359375 -2.6875q0 -1.375 -1.203125 -2.171875q-0.84375 -0.546875 -4.171875 -1.375q-4.484375 -1.140625 -6.21875 -1.96875q-1.734375 -0.828125 -2.625 -2.28125q-0.890625 -1.46875 -0.890625 -3.234375q0 -1.609375 0.734375 -2.96875q0.734375 -1.375 2.0 -2.28125q0.953125 -0.703125 2.59375 -1.1875q1.640625 -0.484375 3.53125 -0.484375q2.828125 0 4.96875 0.8125q2.140625 0.8125 3.15625 2.203125q1.015625 1.390625 1.40625 3.734375l-3.984375 0.53125q-0.28125 -1.84375 -1.578125 -2.890625q-1.296875 -1.046875 -3.671875 -1.046875q-2.8125 0 -4.015625 0.9375q-1.203125 0.921875 -1.203125 2.171875q0 0.796875 0.5 1.421875q0.5 0.65625 1.5625 1.09375q0.609375 0.21875 3.59375 1.03125q4.328125 1.15625 6.03125 1.90625q1.71875 0.734375 2.6875 2.140625q0.984375 1.390625 0.984375 3.484375q0 2.03125 -1.1875 3.84375q-1.1875 1.796875 -3.4375 2.78125q-2.234375 0.984375 -5.078125 0.984375q-4.6875 0 -7.140625 -1.953125q-2.453125 -1.953125 -3.140625 -5.78125zm33.726562 3.546875l0.59375 3.59375q-1.71875 0.359375 -3.078125 0.359375q-2.21875 0 -3.453125 -0.703125q-1.21875 -0.703125 -1.71875 -1.84375q-0.484375 -1.140625 -0.484375 -4.8125l0 -13.84375l-3.0 0l0 -3.171875l3.0 0l0 -5.953125l4.046875 -2.4375l0 8.390625l4.09375 0l0 3.171875l-4.09375 0l0 14.078125q0 1.734375 0.21875 2.234375q0.21875 0.5 0.703125 0.796875q0.484375 0.296875 1.390625 0.296875q0.671875 0 1.78125 -0.15625zm19.763794 3.640625l0 -3.53125q-2.8125 4.078125 -7.640625 4.078125q-2.125 0 -3.96875 -0.8125q-1.84375 -0.828125 -2.75 -2.0625q-0.890625 -1.234375 -1.25 -3.015625q-0.25 -1.203125 -0.25 -3.8125l0 -14.90625l4.078125 0l0 13.34375q0 3.203125 0.25 4.3125q0.375 1.609375 1.625 2.53125q1.25 0.90625 3.078125 0.90625q1.84375 0 3.453125 -0.9375q1.609375 -0.9375 2.265625 -2.5625q0.671875 -1.625 0.671875 -4.703125l0 -12.890625l4.078125 0l0 24.0625l-3.640625 0zm25.644043 0l0 -3.03125q-2.296875 3.578125 -6.734375 3.578125q-2.875 0 -5.296875 -1.578125q-2.40625 -1.59375 -3.734375 -4.4375q-1.328125 -2.84375 -1.328125 -6.53125q0 -3.609375 1.203125 -6.53125q1.203125 -2.9375 3.59375 -4.5q2.40625 -1.5625 5.375 -1.5625q2.1875 0 3.875 0.921875q1.703125 0.90625 2.765625 2.375l0 -11.90625l4.0625 0l0 33.203125l-3.78125 0zm-12.890625 -12.0q0 4.609375 1.9375 6.90625q1.953125 2.28125 4.609375 2.28125q2.671875 0 4.53125 -2.1875q1.875 -2.1875 1.875 -6.671875q0 -4.9375 -1.90625 -7.234375q-1.90625 -2.3125 -4.6875 -2.3125q-2.71875 0 -4.546875 2.21875q-1.8125 2.21875 -1.8125 7.0zm23.097107 -16.515625l0 -4.6875l4.078125 0l0 4.6875l-4.078125 0zm0 28.515625l0 -24.0625l4.078125 0l0 24.0625l-4.078125 0zm8.775269 -12.03125q0 -6.671875 3.703125 -9.890625q3.109375 -2.671875 7.578125 -2.671875q4.953125 0 8.09375 3.25q3.15625 3.25 3.15625 8.96875q0 4.65625 -1.390625 7.3125q-1.390625 2.65625 -4.0625 4.140625q-2.65625 1.46875 -5.796875 1.46875q-5.0625 0 -8.171875 -3.234375q-3.109375 -3.25 -3.109375 -9.34375zm4.1875 0q0 4.625 2.015625 6.921875q2.015625 2.296875 5.078125 2.296875q3.03125 0 5.046875 -2.3125q2.015625 -2.3125 2.015625 -7.03125q0 -4.46875 -2.03125 -6.765625q-2.03125 -2.296875 -5.03125 -2.296875q-3.0625 0 -5.078125 2.28125q-2.015625 2.28125 -2.015625 6.90625zm55.001587 8.109375q-2.015625 2.25 -4.40625 3.375q-2.375 1.109375 -5.140625 1.109375q-5.09375 0 -8.078125 -3.4375q-2.421875 -2.8125 -2.421875 -6.28125q0 -3.078125 1.96875 -5.546875q1.984375 -2.484375 5.9375 -4.375q-2.25 -2.578125 -3.0 -4.1875q-0.75 -1.609375 -0.75 -3.09375q0 -3.0 2.34375 -5.203125q2.34375 -2.21875 5.90625 -2.21875q3.390625 0 5.546875 2.09375q2.171875 2.078125 2.171875 5.0q0 4.734375 -6.265625 8.09375l5.953125 7.578125q1.015625 -1.984375 1.59375 -4.609375l4.234375 0.90625q-1.09375 4.34375 -2.953125 7.15625q2.296875 3.03125 5.1875 5.09375l-2.734375 3.234375q-2.46875 -1.578125 -5.09375 -4.6875zm-8.296875 -17.296875q2.65625 -1.5625 3.4375 -2.734375q0.78125 -1.1875 0.78125 -2.625q0 -1.6875 -1.078125 -2.765625q-1.078125 -1.078125 -2.6875 -1.078125q-1.65625 0 -2.75 1.0625q-1.09375 1.0625 -1.09375 2.609375q0 0.765625 0.390625 1.625q0.390625 0.84375 1.1875 1.796875l1.8125 2.109375zm5.734375 14.078125l-7.484375 -9.265625q-3.296875 1.984375 -4.453125 3.671875q-1.15625 1.6875 -1.15625 3.328125q0 2.015625 1.609375 4.203125q1.609375 2.171875 4.546875 2.171875q1.84375 0 3.796875 -1.140625q1.953125 -1.15625 3.140625 -2.96875zm37.40912 7.140625l-12.859375 -33.203125l4.75 0l8.640625 24.125q1.046875 2.890625 1.734375 5.4375q0.78125 -2.71875 1.796875 -5.4375l8.96875 -24.125l4.484375 0l-13.0 33.203125l-4.515625 0zm45.145325 -11.640625l4.40625 1.109375q-1.390625 5.40625 -4.984375 8.25q-3.578125 2.84375 -8.765625 2.84375q-5.375 0 -8.734375 -2.1875q-3.359375 -2.1875 -5.125 -6.328125q-1.75 -4.140625 -1.75 -8.90625q0 -5.1875 1.984375 -9.046875q1.984375 -3.859375 5.640625 -5.859375q3.65625 -2.015625 8.046875 -2.015625q4.984375 0 8.375 2.546875q3.40625 2.53125 4.734375 7.140625l-4.3125 1.015625q-1.15625 -3.625 -3.359375 -5.28125q-2.203125 -1.65625 -5.53125 -1.65625q-3.828125 0 -6.40625 1.84375q-2.5625 1.828125 -3.609375 4.921875q-1.03125 3.09375 -1.03125 6.375q0 4.234375 1.234375 7.40625q1.234375 3.15625 3.828125 4.71875q2.609375 1.5625 5.65625 1.5625q3.6875 0 6.234375 -2.125q2.5625 -2.140625 3.46875 -6.328125zm8.314331 0.96875l4.15625 -0.359375q0.296875 2.484375 1.359375 4.09375q1.078125 1.59375 3.34375 2.578125q2.265625 0.984375 5.09375 0.984375q2.515625 0 4.4375 -0.75q1.9375 -0.75 2.875 -2.046875q0.9375 -1.296875 0.9375 -2.84375q0 -1.5625 -0.90625 -2.71875q-0.90625 -1.171875 -2.984375 -1.96875q-1.34375 -0.515625 -5.921875 -1.609375q-4.5625 -1.109375 -6.40625 -2.078125q-2.375 -1.25 -3.546875 -3.09375q-1.15625 -1.84375 -1.15625 -4.140625q0 -2.515625 1.421875 -4.703125q1.421875 -2.1875 4.15625 -3.3125q2.75 -1.140625 6.109375 -1.140625q3.6875 0 6.5 1.203125q2.828125 1.1875 4.34375 3.5q1.515625 2.296875 1.625 5.21875l-4.203125 0.328125q-0.34375 -3.15625 -2.3125 -4.765625q-1.953125 -1.609375 -5.78125 -1.609375q-3.984375 0 -5.8125 1.46875q-1.8125 1.453125 -1.8125 3.515625q0 1.796875 1.28125 2.953125q1.265625 1.15625 6.625 2.375q5.359375 1.203125 7.359375 2.109375q2.890625 1.328125 4.265625 3.390625q1.390625 2.046875 1.390625 4.71875q0 2.640625 -1.515625 5.0q-1.515625 2.34375 -4.359375 3.640625q-2.84375 1.296875 -6.40625 1.296875q-4.5 0 -7.546875 -1.3125q-3.046875 -1.3125 -4.78125 -3.953125q-1.734375 -2.640625 -1.828125 -5.96875z" fill-rule="nonzero"/></g></svg>