<svg version="1.1" viewBox="0.0 0.0 960.0 188.9763779527559" fill="none" stroke="none" stroke-linecap="square" stroke-miterlimit="10" xmlns:xlink="http://www.w3.org/1999/xlink" xmlns="http://www.w3.org/2000/svg"><clipPath id="g230b9335807_0_28.0"><path d="m0 0l960.0 0l0 188.97638l-960.0 0l0 -188.97638z" clip-rule="nonzero"/></clipPath><g clip-path="url(#g230b9335807_0_28.0)"><path fill="#ffffff" d="m0 0l960.0 0l0 188.97638l-960.0 0z" fill-rule="evenodd"/><path fill="#000000" d="m1.0498687E-6 -2.1548556E-4l960.0 0l0 188.97638l-960.0 0z" fill-rule="evenodd"/><path fill="#ffffff" d="m376.44232 111.19197l0 -33.203125l6.625 0l7.859375 23.515625q1.078125 3.28125 1.578125 4.90625q0.5625 -1.8125 1.765625 -5.328125l7.953125 -23.09375l5.90625 0l0 33.203125l-4.234375 0l0 -27.796875l-9.640625 27.796875l-3.96875 0l-9.609375 -28.265625l0 28.265625l-4.234375 0zm53.956238 -2.96875q-2.265625 1.921875 -4.359375 2.71875q-2.09375 0.796875 -4.484375 0.796875q-3.96875 0 -6.109375 -1.9375q-2.125 -1.9375 -2.125 -4.953125q0 -1.765625 0.796875 -3.21875q0.8125 -1.46875 2.109375 -2.34375q1.3125 -0.890625 2.9375 -1.34375q1.203125 -0.3125 3.625 -0.609375q4.9375 -0.59375 7.28125 -1.40625q0.015625 -0.84375 0.015625 -1.0625q0 -2.5 -1.15625 -3.515625q-1.5625 -1.375 -4.640625 -1.375q-2.875 0 -4.25 1.015625q-1.375 1.0 -2.03125 3.546875l-3.984375 -0.53125q0.546875 -2.5625 1.78125 -4.140625q1.25 -1.578125 3.609375 -2.421875q2.359375 -0.84375 5.46875 -0.84375q3.078125 0 5.0 0.71875q1.921875 0.71875 2.828125 1.828125q0.90625 1.09375 1.265625 2.765625q0.203125 1.046875 0.203125 3.765625l0 5.4375q0 5.6875 0.265625 7.203125q0.265625 1.5 1.03125 2.875l-4.25 0q-0.640625 -1.265625 -0.828125 -2.96875zm-0.328125 -9.109375q-2.21875 0.90625 -6.671875 1.546875q-2.515625 0.359375 -3.5625 0.8125q-1.03125 0.453125 -1.59375 1.328125q-0.5625 0.875 -0.5625 1.9375q0 1.625 1.234375 2.71875q1.234375 1.078125 3.609375 1.078125q2.359375 0 4.1875 -1.03125q1.828125 -1.03125 2.703125 -2.8125q0.65625 -1.375 0.65625 -4.078125l0 -1.5zm10.394043 12.078125l0 -24.0625l3.671875 0l0 3.65625q1.40625 -2.5625 2.59375 -3.375q1.1875 -0.8125 2.609375 -0.8125q2.0625 0 4.1875 1.3125l-1.40625 3.78125q-1.484375 -0.890625 -2.984375 -0.890625q-1.328125 0 -2.40625 0.8125q-1.0625 0.796875 -1.515625 2.234375q-0.671875 2.171875 -0.671875 4.75l0 12.59375l-4.078125 0zm15.510925 0l0 -33.203125l4.078125 0l0 18.9375l9.65625 -9.796875l5.265625 0l-9.1875 8.9375l10.125 15.125l-5.03125 0l-7.953125 -12.296875l-2.875 2.765625l0 9.53125l-4.078125 0zm38.789062 0l0 -3.03125q-2.296875 3.578125 -6.734375 3.578125q-2.875 0 -5.296875 -1.578125q-2.40625 -1.59375 -3.734375 -4.4375q-1.328125 -2.84375 -1.328125 -6.53125q0 -3.609375 1.203125 -6.53125q1.203125 -2.9375 3.59375 -4.5q2.40625 -1.5625 5.375 -1.5625q2.1875 0 3.875 0.921875q1.703125 0.90625 2.765625 2.375l0 -11.90625l4.0625 0l0 33.203125l-3.78125 0zm-12.890625 -12.0q0 4.609375 1.9375 6.90625q1.953125 2.28125 4.609375 2.28125q2.671875 0 4.53125 -2.1875q1.875 -2.1875 1.875 -6.671875q0 -4.9375 -1.90625 -7.234375q-1.90625 -2.3125 -4.6875 -2.3125q-2.71875 0 -4.546875 2.21875q-1.8125 2.21875 -1.8125 7.0zm21.565887 -0.03125q0 -6.671875 3.703125 -9.890625q3.109375 -2.671875 7.5780945 -2.671875q4.953125 0 8.09375 3.25q3.15625 3.25 3.15625 8.96875q0 4.65625 -1.390625 7.3125q-1.390625 2.65625 -4.0625 4.140625q-2.65625 1.46875 -5.796875 1.46875q-5.0624695 0 -8.1718445 -3.234375q-3.109375 -3.25 -3.109375 -9.34375zm4.1875 0q0 4.625 2.015625 6.921875q2.015625 2.296875 5.0780945 2.296875q3.03125 0 5.046875 -2.3125q2.015625 -2.3125 2.015625 -7.03125q0 -4.46875 -2.03125 -6.765625q-2.03125 -2.296875 -5.03125 -2.296875q-3.0624695 0 -5.0780945 2.28125q-2.015625 2.28125 -2.015625 6.90625zm27.565887 12.03125l-7.359375 -24.0625l4.203125 0l3.828125 13.890625l1.4375 5.171875q0.078125 -0.390625 1.234375 -4.96875l3.828125 -14.09375l4.203125 0l3.59375 13.953125l1.203125 4.609375l1.375 -4.640625l4.125 -13.921875l3.96875 0l-7.515625 24.0625l-4.234375 0l-3.828125 -14.40625l-0.9375 -4.09375l-4.875 18.5l-4.25 0zm29.064331 0l0 -24.0625l3.671875 0l0 3.421875q2.640625 -3.953125 7.65625 -3.953125q2.171875 0 3.984375 0.78125q1.828125 0.78125 2.734375 2.046875q0.90625 1.265625 1.265625 3.015625q0.234375 1.125 0.234375 3.953125l0 14.796875l-4.078125 0l0 -14.640625q0 -2.484375 -0.484375 -3.71875q-0.46875 -1.234375 -1.6875 -1.96875q-1.203125 -0.734375 -2.84375 -0.734375q-2.59375 0 -4.484375 1.65625q-1.890625 1.640625 -1.890625 6.265625l0 13.140625l-4.078125 0z" fill-rule="nonzero"/></g></svg>