<svg version="1.1" viewBox="0.0 0.0 960.0 188.9763779527559" fill="none" stroke="none" stroke-linecap="square" stroke-miterlimit="10" xmlns:xlink="http://www.w3.org/1999/xlink" xmlns="http://www.w3.org/2000/svg"><clipPath id="g230b9335807_0_32.0"><path d="m0 0l960.0 0l0 188.97638l-960.0 0l0 -188.97638z" clip-rule="nonzero"/></clipPath><g clip-path="url(#g230b9335807_0_32.0)"><path fill="#ffffff" d="m0 0l960.0 0l0 188.97638l-960.0 0z" fill-rule="evenodd"/><path fill="#000000" d="m1.0498687E-6 -2.1548556E-4l960.0 0l0 188.97638l-960.0 0z" fill-rule="evenodd"/><path fill="#ffffff" d="m263.0625 111.19197l0 -33.203125l4.515625 0l17.4375 26.0625l0 -26.0625l4.21875 0l0 33.203125l-4.515625 0l-17.4375 -26.09375l0 26.09375l-4.21875 0zm31.517456 -12.03125q0 -6.671875 3.703125 -9.890625q3.109375 -2.671875 7.578125 -2.671875q4.953125 0 8.09375 3.25q3.15625 3.25 3.15625 8.96875q0 4.65625 -1.390625 7.3125q-1.390625 2.65625 -4.0625 4.140625q-2.65625 1.46875 -5.796875 1.46875q-5.0625 0 -8.171875 -3.234375q-3.109375 -3.25 -3.109375 -9.34375zm4.1875 0q0 4.625 2.015625 6.921875q2.015625 2.296875 5.078125 2.296875q3.03125 0 5.046875 -2.3125q2.015625 -2.3125 2.015625 -7.03125q0 -4.46875 -2.03125 -6.765625q-2.03125 -2.296875 -5.03125 -2.296875q-3.0625 0 -5.078125 2.28125q-2.015625 2.28125 -2.015625 6.90625zm32.019012 8.390625l0.59375 3.59375q-1.71875 0.359375 -3.078125 0.359375q-2.21875 0 -3.453125 -0.703125q-1.21875 -0.703125 -1.71875 -1.84375q-0.484375 -1.140625 -0.484375 -4.8125l0 -13.84375l-3.0 0l0 -3.171875l3.0 0l0 -5.953125l4.046875 -2.4375l0 8.390625l4.09375 0l0 3.171875l-4.09375 0l0 14.078125q0 1.734375 0.21875 2.234375q0.21875 0.5 0.703125 0.796875q0.484375 0.296875 1.390625 0.296875q0.671875 0 1.78125 -0.15625zm15.246368 -3.546875l4.03125 -0.625q0.34375 2.421875 1.890625 3.71875q1.5625 1.28125 4.34375 1.28125q2.8125 0 4.171875 -1.140625q1.359375 -1.140625 1.359375 -2.6875q0 -1.375 -1.203125 -2.171875q-0.84375 -0.546875 -4.171875 -1.375q-4.484375 -1.140625 -6.21875 -1.96875q-1.734375 -0.828125 -2.625 -2.28125q-0.890625 -1.46875 -0.890625 -3.234375q0 -1.609375 0.734375 -2.96875q0.734375 -1.375 2.0 -2.28125q0.953125 -0.703125 2.59375 -1.1875q1.640625 -0.484375 3.53125 -0.484375q2.828125 0 4.96875 0.8125q2.140625 0.8125 3.15625 2.203125q1.015625 1.390625 1.40625 3.734375l-3.984375 0.53125q-0.28125 -1.84375 -1.578125 -2.890625q-1.296875 -1.046875 -3.671875 -1.046875q-2.8125 0 -4.015625 0.9375q-1.203125 0.921875 -1.203125 2.171875q0 0.796875 0.5 1.421875q0.5 0.65625 1.5625 1.09375q0.609375 0.21875 3.59375 1.03125q4.328125 1.15625 6.03125 1.90625q1.71875 0.734375 2.6875 2.140625q0.984375 1.390625 0.984375 3.484375q0 2.03125 -1.1875 3.84375q-1.1875 1.796875 -3.4375 2.78125q-2.234375 0.984375 -5.078125 0.984375q-4.6875 0 -7.140625 -1.953125q-2.453125 -1.953125 -3.140625 -5.78125zm23.320312 -4.84375q0 -6.671875 3.703125 -9.890625q3.109375 -2.671875 7.578125 -2.671875q4.953125 0 8.09375 3.25q3.15625 3.25 3.15625 8.96875q0 4.65625 -1.390625 7.3125q-1.390625 2.65625 -4.0625 4.140625q-2.65625 1.46875 -5.796875 1.46875q-5.0625 0 -8.171875 -3.234375q-3.109375 -3.25 -3.109375 -9.34375zm4.1875 0q0 4.625 2.015625 6.921875q2.015625 2.296875 5.078125 2.296875q3.03125 0 5.046875 -2.3125q2.015625 -2.3125 2.015625 -7.03125q0 -4.46875 -2.03125 -6.765625q-2.03125 -2.296875 -5.03125 -2.296875q-3.0625 0 -5.078125 2.28125q-2.015625 2.28125 -2.015625 6.90625zm35.970337 12.03125l0 -24.0625l3.671875 0l0 3.65625q1.40625 -2.5625 2.59375 -3.375q1.1875 -0.8125 2.609375 -0.8125q2.0625 0 4.1875 1.3125l-1.40625 3.78125q-1.484375 -0.890625 -2.984375 -0.890625q-1.328125 0 -2.40625 0.8125q-1.0625 0.796875 -1.515625 2.234375q-0.671875 2.171875 -0.671875 4.75l0 12.59375l-4.078125 0zm31.1828 -2.96875q-2.265625 1.921875 -4.359375 2.71875q-2.09375 0.796875 -4.484375 0.796875q-3.96875 0 -6.109375 -1.9375q-2.125 -1.9375 -2.125 -4.953125q0 -1.765625 0.796875 -3.21875q0.8125 -1.46875 2.109375 -2.34375q1.3125 -0.890625 2.9375 -1.34375q1.203125 -0.3125 3.625 -0.609375q4.9375 -0.59375 7.28125 -1.40625q0.015625 -0.84375 0.015625 -1.0625q0 -2.5 -1.15625 -3.515625q-1.5625 -1.375 -4.640625 -1.375q-2.875 0 -4.25 1.015625q-1.375 1.0 -2.03125 3.546875l-3.984375 -0.53125q0.546875 -2.5625 1.78125 -4.140625q1.25 -1.578125 3.609375 -2.421875q2.359375 -0.84375 5.46875 -0.84375q3.078125 0 5.0 0.71875q1.921875 0.71875 2.828125 1.828125q0.90625 1.09375 1.265625 2.765625q0.203125 1.046875 0.203125 3.765625l0 5.4375q0 5.6875 0.265625 7.203125q0.265625 1.5 1.03125 2.875l-4.25 0q-0.640625 -1.265625 -0.828125 -2.96875zm-0.328125 -9.109375q-2.21875 0.90625 -6.671875 1.546875q-2.515625 0.359375 -3.5625 0.8125q-1.03125 0.453125 -1.59375 1.328125q-0.5625 0.875 -0.5625 1.9375q0 1.625 1.234375 2.71875q1.234375 1.078125 3.609375 1.078125q2.359375 0 4.1875 -1.03125q1.828125 -1.03125 2.703125 -2.8125q0.65625 -1.375 0.65625 -4.078125l0 -1.5zm10.440887 12.078125l0 -24.0625l3.671875 0l0 3.421875q2.640625 -3.953125 7.65625 -3.953125q2.171875 0 3.984375 0.78125q1.828125 0.78125 2.734375 2.046875q0.90625 1.265625 1.265625 3.015625q0.234375 1.125 0.234375 3.953125l0 14.796875l-4.078125 0l0 -14.640625q0 -2.484375 -0.484375 -3.71875q-0.46875 -1.234375 -1.6875 -1.96875q-1.203125 -0.734375 -2.84375 -0.734375q-2.59375 0 -4.484375 1.65625q-1.890625 1.640625 -1.890625 6.265625l0 13.140625l-4.078125 0zm41.409637 0l0 -3.03125q-2.296875 3.578125 -6.734375 3.578125q-2.875 0 -5.296875 -1.578125q-2.40625 -1.59375 -3.734375 -4.4375q-1.328125 -2.84375 -1.328125 -6.53125q0 -3.609375 1.203125 -6.53125q1.203125 -2.9375 3.59375 -4.5q2.40625 -1.5625 5.375 -1.5625q2.1875 0 3.875 0.921875q1.703125 0.90625 2.765625 2.375l0 -11.90625l4.0625 0l0 33.203125l-3.78125 0zm-12.890625 -12.0q0 4.609375 1.9375 6.90625q1.953125 2.28125 4.609375 2.28125q2.671875 0 4.53125 -2.1875q1.875 -2.1875 1.875 -6.671875q0 -4.9375 -1.90625 -7.234375q-1.90625 -2.3125 -4.6875 -2.3125q-2.71875 0 -4.546875 2.21875q-1.8125 2.21875 -1.8125 7.0zm21.565887 -0.03125q0 -6.671875 3.703125 -9.890625q3.109375 -2.671875 7.5781555 -2.671875q4.953125 0 8.09375 3.25q3.15625 3.25 3.15625 8.96875q0 4.65625 -1.390625 7.3125q-1.390625 2.65625 -4.0625 4.140625q-2.65625 1.46875 -5.796875 1.46875q-5.0625305 0 -8.1719055 -3.234375q-3.109375 -3.25 -3.109375 -9.34375zm4.1875 0q0 4.625 2.015625 6.921875q2.015625 2.296875 5.0781555 2.296875q3.03125 0 5.046875 -2.3125q2.015625 -2.3125 2.015625 -7.03125q0 -4.46875 -2.03125 -6.765625q-2.03125 -2.296875 -5.03125 -2.296875q-3.0625305 0 -5.0781555 2.28125q-2.015625 2.28125 -2.015625 6.90625zm23.128387 12.03125l0 -24.0625l3.640625 0l0 3.375q1.140625 -1.765625 3.015625 -2.828125q1.875 -1.078125 4.28125 -1.078125q2.671875 0 4.375 1.109375q1.71875 1.109375 2.421875 3.09375q2.84375 -4.203125 7.421875 -4.203125q3.578125 0 5.5 1.984375q1.9375 1.96875 1.9375 6.09375l0 16.515625l-4.0625 0l0 -15.15625q0 -2.4375 -0.390625 -3.515625q-0.390625 -1.078125 -1.4375 -1.734375q-1.046875 -0.65625 -2.453125 -0.65625q-2.53125 0 -4.21875 1.6875q-1.671875 1.6875 -1.671875 5.40625l0 13.96875l-4.078125 0l0 -15.625q0 -2.71875 -1.0 -4.078125q-0.984375 -1.359375 -3.25 -1.359375q-1.71875 0 -3.1875 0.90625q-1.453125 0.90625 -2.109375 2.65625q-0.65625 1.734375 -0.65625 5.015625l0 12.484375l-4.078125 0zm60.423157 -3.640625l0.59375 3.59375q-1.71875 0.359375 -3.078125 0.359375q-2.21875 0 -3.453125 -0.703125q-1.21875 -0.703125 -1.71875 -1.84375q-0.484375 -1.140625 -0.484375 -4.8125l0 -13.84375l-3.0 0l0 -3.171875l3.0 0l0 -5.953125l4.046875 -2.4375l0 8.390625l4.09375 0l0 3.171875l-4.09375 0l0 14.078125q0 1.734375 0.21875 2.234375q0.21875 0.5 0.703125 0.796875q0.484375 0.296875 1.390625 0.296875q0.671875 0 1.78125 -0.15625zm3.998169 3.640625l0 -33.203125l4.078125 0l0 11.90625q2.84375 -3.296875 7.203125 -3.296875q2.671875 0 4.640625 1.046875q1.96875 1.046875 2.8125 2.90625q0.859375 1.859375 0.859375 5.390625l0 15.25l-4.078125 0l0 -15.25q0 -3.046875 -1.328125 -4.4375q-1.328125 -1.40625 -3.75 -1.40625q-1.8125 0 -3.40625 0.953125q-1.59375 0.9375 -2.28125 2.546875q-0.671875 1.609375 -0.671875 4.4375l0 13.15625l-4.078125 0zm25.815918 -28.515625l0 -4.6875l4.078125 0l0 4.6875l-4.078125 0zm0 28.515625l0 -24.0625l4.078125 0l0 24.0625l-4.078125 0zm10.290894 0l0 -24.0625l3.671875 0l0 3.421875q2.640625 -3.953125 7.65625 -3.953125q2.171875 0 3.984375 0.78125q1.828125 0.78125 2.734375 2.046875q0.90625 1.265625 1.265625 3.015625q0.234375 1.125 0.234375 3.953125l0 14.796875l-4.078125 0l0 -14.640625q0 -2.484375 -0.484375 -3.71875q-0.46875 -1.234375 -1.6875 -1.96875q-1.203125 -0.734375 -2.84375 -0.734375q-2.59375 0 -4.484375 1.65625q-1.890625 1.640625 -1.890625 6.265625l0 13.140625l-4.078125 0zm25.050232 2.0l3.96875 0.578125q0.25 1.84375 1.375 2.671875q1.515625 1.140625 4.140625 1.140625q2.84375 0 4.375 -1.140625q1.546875 -1.125 2.078125 -3.171875q0.328125 -1.234375 0.296875 -5.234375q-2.671875 3.15625 -6.65625 3.15625q-4.953125 0 -7.671875 -3.578125q-2.71875 -3.578125 -2.71875 -8.578125q0 -3.453125 1.234375 -6.359375q1.25 -2.90625 3.609375 -4.484375q2.375 -1.59375 5.578125 -1.59375q4.25 0 7.015625 3.4375l0 -2.90625l3.765625 0l0 20.796875q0 5.625 -1.15625 7.96875q-1.140625 2.34375 -3.625 3.703125q-2.46875 1.359375 -6.09375 1.359375q-4.3125 0 -6.96875 -1.9375q-2.640625 -1.9375 -2.546875 -5.828125zm3.375 -14.453125q0 4.734375 1.875 6.90625q1.890625 2.171875 4.71875 2.171875q2.8125 0 4.703125 -2.15625q1.90625 -2.171875 1.90625 -6.796875q0 -4.40625 -1.96875 -6.640625q-1.953125 -2.25 -4.71875 -2.25q-2.71875 0 -4.625 2.203125q-1.890625 2.203125 -1.890625 6.5625zm21.534607 5.265625l4.03125 -0.625q0.34375 2.421875 1.890625 3.71875q1.5625 1.28125 4.34375 1.28125q2.8125 0 4.171875 -1.140625q1.359375 -1.140625 1.359375 -2.6875q0 -1.375 -1.203125 -2.171875q-0.84375 -0.546875 -4.171875 -1.375q-4.484375 -1.140625 -6.21875 -1.96875q-1.734375 -0.828125 -2.625 -2.28125q-0.890625 -1.46875 -0.890625 -3.234375q0 -1.609375 0.734375 -2.96875q0.734375 -1.375 2.0 -2.28125q0.953125 -0.703125 2.59375 -1.1875q1.640625 -0.484375 3.53125 -0.484375q2.828125 0 4.96875 0.8125q2.140625 0.8125 3.15625 2.203125q1.015625 1.390625 1.40625 3.734375l-3.984375 0.53125q-0.28125 -1.84375 -1.578125 -2.890625q-1.296875 -1.046875 -3.671875 -1.046875q-2.8125 0 -4.015625 0.9375q-1.203125 0.921875 -1.203125 2.171875q0 0.796875 0.5 1.421875q0.5 0.65625 1.5625 1.09375q0.609375 0.21875 3.59375 1.03125q4.328125 1.15625 6.03125 1.90625q1.71875 0.734375 2.6875 2.140625q0.984375 1.390625 0.984375 3.484375q0 2.03125 -1.1875 3.84375q-1.1875 1.796875 -3.4375 2.78125q-2.234375 0.984375 -5.078125 0.984375q-4.6875 0 -7.140625 -1.953125q-2.453125 -1.953125 -3.140625 -5.78125z" fill-rule="nonzero"/></g></svg>