<svg version="1.1" viewBox="0.0 0.0 960.0 188.9763779527559" fill="none" stroke="none" stroke-linecap="square" stroke-miterlimit="10" xmlns:xlink="http://www.w3.org/1999/xlink" xmlns="http://www.w3.org/2000/svg"><clipPath id="g230b9335807_0_4.0"><path d="m0 0l960.0 0l0 188.97638l-960.0 0l0 -188.97638z" clip-rule="nonzero"/></clipPath><g clip-path="url(#g230b9335807_0_4.0)"><path fill="#ffffff" d="m0 0l960.0 0l0 188.97638l-960.0 0z" fill-rule="evenodd"/><path fill="#000000" d="m1.0498687E-6 -2.1548556E-4l960.0 0l0 188.97638l-960.0 0z" fill-rule="evenodd"/><path fill="#ffffff" d="m411.36456 111.19197l0 -33.203125l12.53125 0q3.296875 0 5.046875 0.3125q2.453125 0.40625 4.09375 1.5625q1.65625 1.140625 2.65625 3.203125q1.015625 2.046875 1.015625 4.515625q0 4.25 -2.703125 7.1875q-2.6875 2.921875 -9.734375 2.921875l-8.515625 0l0 13.5l-4.390625 0zm4.390625 -17.421875l8.59375 0q4.25 0 6.03125 -1.578125q1.796875 -1.59375 1.796875 -4.46875q0 -2.078125 -1.046875 -3.5625q-1.046875 -1.484375 -2.78125 -1.96875q-1.109375 -0.28125 -4.09375 -0.28125l-8.5 0l0 11.859375zm25.84845 26.6875l-0.453125 -3.828125q1.34375 0.359375 2.328125 0.359375q1.359375 0 2.171875 -0.453125q0.828125 -0.453125 1.34375 -1.265625q0.390625 -0.609375 1.25 -3.03125q0.109375 -0.34375 0.359375 -1.0l-9.125 -24.109375l4.390625 0l5.0 13.9375q0.984375 2.65625 1.75 5.578125q0.703125 -2.8125 1.671875 -5.484375l5.140625 -14.03125l4.078125 0l-9.140625 24.46875q-1.484375 3.96875 -2.296875 5.453125q-1.078125 2.015625 -2.484375 2.953125q-1.40625 0.953125 -3.359375 0.953125q-1.171875 0 -2.625 -0.5zm32.273438 -12.90625l0.59375 3.59375q-1.71875 0.359375 -3.078125 0.359375q-2.21875 0 -3.453125 -0.703125q-1.21875 -0.703125 -1.71875 -1.84375q-0.484375 -1.140625 -0.484375 -4.8125l0 -13.84375l-3.0 0l0 -3.171875l3.0 0l0 -5.953125l4.046875 -2.4375l0 8.390625l4.09375 0l0 3.171875l-4.09375 0l0 14.078125q0 1.734375 0.21875 2.234375q0.21875 0.5 0.703125 0.796875q0.484375 0.296875 1.390625 0.296875q0.671875 0 1.78125 -0.15625zm3.998169 3.640625l0 -33.203125l4.078125 0l0 11.90625q2.84375 -3.296875 7.203125 -3.296875q2.671875 0 4.640625 1.046875q1.96875 1.046875 2.8125 2.90625q0.859375 1.859375 0.859375 5.390625l0 15.25l-4.078125 0l0 -15.25q0 -3.046875 -1.328125 -4.4375q-1.328125 -1.40625 -3.75 -1.40625q-1.8125 0 -3.40625 0.953125q-1.59375 0.9375 -2.28125 2.546875q-0.671875 1.609375 -0.671875 4.4375l0 13.15625l-4.078125 0zm24.284637 -12.03125q0 -6.671875 3.703125 -9.890625q3.109375 -2.671875 7.5781555 -2.671875q4.953125 0 8.09375 3.25q3.15625 3.25 3.15625 8.96875q0 4.65625 -1.390625 7.3125q-1.390625 2.65625 -4.0625 4.140625q-2.65625 1.46875 -5.796875 1.46875q-5.0625305 0 -8.1719055 -3.234375q-3.109375 -3.25 -3.109375 -9.34375zm4.1875 0q0 4.625 2.015625 6.921875q2.015625 2.296875 5.0781555 2.296875q3.03125 0 5.046875 -2.3125q2.015625 -2.3125 2.015625 -7.03125q0 -4.46875 -2.03125 -6.765625q-2.03125 -2.296875 -5.03125 -2.296875q-3.0625305 0 -5.0781555 2.28125q-2.015625 2.28125 -2.015625 6.90625zm23.128387 12.03125l0 -24.0625l3.671875 0l0 3.421875q2.640625 -3.953125 7.65625 -3.953125q2.171875 0 3.984375 0.78125q1.828125 0.78125 2.734375 2.046875q0.90625 1.265625 1.265625 3.015625q0.234375 1.125 0.234375 3.953125l0 14.796875l-4.078125 0l0 -14.640625q0 -2.484375 -0.484375 -3.71875q-0.46875 -1.234375 -1.6875 -1.96875q-1.203125 -0.734375 -2.84375 -0.734375q-2.59375 0 -4.484375 1.65625q-1.890625 1.640625 -1.890625 6.265625l0 13.140625l-4.078125 0z" fill-rule="nonzero"/></g></svg>