<svg version="1.1" viewBox="0.0 0.0 960.0 188.9763779527559" fill="none" stroke="none" stroke-linecap="square" stroke-miterlimit="10" xmlns:xlink="http://www.w3.org/1999/xlink" xmlns="http://www.w3.org/2000/svg"><clipPath id="g230b9335807_0_16.0"><path d="m0 0l960.0 0l0 188.97638l-960.0 0l0 -188.97638z" clip-rule="nonzero"/></clipPath><g clip-path="url(#g230b9335807_0_16.0)"><path fill="#ffffff" d="m0 0l960.0 0l0 188.97638l-960.0 0z" fill-rule="evenodd"/><path fill="#000000" d="m1.0498687E-6 -2.1548556E-4l960.0 0l0 188.97638l-960.0 0z" fill-rule="evenodd"/><path fill="#ffffff" d="m466.8897 111.19197l0 -33.203125l14.734375 0q4.4375 0 6.75 0.890625q2.3125 0.890625 3.6875 3.15625q1.375 2.265625 1.375 5.015625q0 3.53125 -2.28125 5.953125q-2.28125 2.421875 -7.0625 3.078125q1.734375 0.84375 2.640625 1.65625q1.9375 1.765625 3.65625 4.421875l5.765625 9.03125l-5.515625 0l-4.40625 -6.90625q-1.921875 -3.0 -3.171875 -4.578125q-1.234375 -1.578125 -2.21875 -2.21875q-0.984375 -0.640625 -2.015625 -0.890625q-0.734375 -0.15625 -2.4375 -0.15625l-5.09375 0l0 14.75l-4.40625 0zm4.40625 -18.546875l9.4375 0q3.015625 0 4.703125 -0.625q1.703125 -0.625 2.59375 -1.984375q0.890625 -1.375 0.890625 -2.984375q0 -2.359375 -1.71875 -3.875q-1.703125 -1.515625 -5.40625 -1.515625l-10.5 0l0 10.984375z" fill-rule="nonzero"/></g></svg>