<svg version="1.1" viewBox="0.0 0.0 960.0 188.9763779527559" fill="none" stroke="none" stroke-linecap="square" stroke-miterlimit="10" xmlns:xlink="http://www.w3.org/1999/xlink" xmlns="http://www.w3.org/2000/svg"><clipPath id="g230b9335807_0_8.0"><path d="m0 0l960.0 0l0 188.97638l-960.0 0l0 -188.97638z" clip-rule="nonzero"/></clipPath><g clip-path="url(#g230b9335807_0_8.0)"><path fill="#ffffff" d="m0 0l960.0 0l0 188.97638l-960.0 0z" fill-rule="evenodd"/><path fill="#000000" d="m1.0498687E-6 -2.1548556E-4l960.0 0l0 188.97638l-960.0 0z" fill-rule="evenodd"/><path fill="#ffffff" d="m435.66486 100.520096l4.15625 -0.359375q0.296875 2.484375 1.359375 4.09375q1.078125 1.59375 3.34375 2.578125q2.265625 0.984375 5.09375 0.984375q2.515625 0 4.4375 -0.75q1.9375 -0.75 2.875 -2.046875q0.9375 -1.296875 0.9375 -2.84375q0 -1.5625 -0.90625 -2.71875q-0.90625 -1.171875 -2.984375 -1.96875q-1.34375 -0.515625 -5.921875 -1.609375q-4.5625 -1.109375 -6.40625 -2.078125q-2.375 -1.25 -3.546875 -3.09375q-1.15625 -1.84375 -1.15625 -4.140625q0 -2.515625 1.421875 -4.703125q1.421875 -2.1875 4.15625 -3.3125q2.75 -1.140625 6.109375 -1.140625q3.6875 0 6.5 1.203125q2.828125 1.1875 4.34375 3.5q1.515625 2.296875 1.625 5.21875l-4.203125 0.328125q-0.34375 -3.15625 -2.3125 -4.765625q-1.953125 -1.609375 -5.78125 -1.609375q-3.984375 0 -5.8125 1.46875q-1.8125 1.453125 -1.8125 3.515625q0 1.796875 1.28125 2.953125q1.265625 1.15625 6.625 2.375q5.359375 1.203125 7.359375 2.109375q2.890625 1.328125 4.265625 3.390625q1.390625 2.046875 1.390625 4.71875q0 2.640625 -1.515625 5.0q-1.515625 2.34375 -4.359375 3.640625q-2.84375 1.296875 -6.40625 1.296875q-4.5 0 -7.546875 -1.3125q-3.046875 -1.3125 -4.78125 -3.953125q-1.734375 -2.640625 -1.828125 -5.96875zm57.614075 7.109375q3.046875 2.109375 5.640625 3.09375l-1.296875 3.046875q-3.578125 -1.28125 -7.140625 -4.078125q-3.6875 2.0625 -8.15625 2.0625q-4.5 0 -8.171875 -2.171875q-3.671875 -2.171875 -5.65625 -6.109375q-1.96875 -3.953125 -1.96875 -8.890625q0 -4.90625 1.984375 -8.9375q2.0 -4.03125 5.671875 -6.140625q3.6875 -2.109375 8.234375 -2.109375q4.609375 0 8.296875 2.1875q3.6875 2.1875 5.625 6.125q1.9375 3.921875 1.9375 8.859375q0 4.09375 -1.25 7.375q-1.234375 3.265625 -3.75 5.6875zm-9.671875 -5.609375q3.796875 1.0625 6.265625 3.171875q3.875 -3.53125 3.875 -10.625q0 -4.03125 -1.375 -7.046875q-1.359375 -3.015625 -4.0 -4.671875q-2.640625 -1.671875 -5.921875 -1.671875q-4.921875 0 -8.15625 3.375q-3.234375 3.359375 -3.234375 10.03125q0 6.484375 3.203125 9.953125q3.203125 3.46875 8.1875 3.46875q2.34375 0 4.4375 -0.890625q-2.0625 -1.328125 -4.34375 -1.90625l1.0625 -3.1875zm20.396606 9.171875l0 -33.203125l4.40625 0l0 29.28125l16.34375 0l0 3.921875l-20.75 0z" fill-rule="nonzero"/></g></svg>