<svg version="1.1" viewBox="0.0 0.0 960.0 302.3622047244094" fill="none" stroke="none" stroke-linecap="square" stroke-miterlimit="10" xmlns:xlink="http://www.w3.org/1999/xlink" xmlns="http://www.w3.org/2000/svg"><clipPath id="p.0"><path d="m0 0l960.0 0l0 302.3622l-960.0 0l0 -302.3622z" clip-rule="nonzero"/></clipPath><g clip-path="url(#p.0)"><path fill="#000000" fill-opacity="0.0" d="m0 0l960.0 0l0 302.3622l-960.0 0z" fill-rule="evenodd"/><path fill="#000000" d="m-6.56168 0l966.5512 0l0 302.3622l-966.5512 0z" fill-rule="evenodd"/><path stroke="#000000" stroke-width="1.0" stroke-linejoin="round" stroke-linecap="butt" d="m-6.56168 0l966.5512 0l0 302.3622l-966.5512 0z" fill-rule="evenodd"/><path fill="#ffffff" d="m364.0467 125.096725l6.953125 0l0 30.328125q0 7.90625 -1.796875 12.5625q-1.78125 4.65625 -6.453125 7.578125q-4.671875 2.90625 -12.265625 2.90625q-7.375 0 -12.0625 -2.53125q-4.6875 -2.546875 -6.703125 -7.359375q-2.0 -4.828125 -2.0 -13.15625l0 -30.328125l6.9375 0l0 30.28125q0 6.84375 1.265625 10.09375q1.28125 3.234375 4.375 4.984375q3.109375 1.75 7.578125 1.75q7.65625 0 10.90625 -3.46875q3.265625 -3.46875 3.265625 -13.359375l0 -30.28125zm18.23648 52.484375l0 -52.484375l19.6875 0q6.015625 0 9.640625 1.59375q3.640625 1.59375 5.703125 4.90625q2.0625 3.3125 2.0625 6.921875q0 3.359375 -1.828125 6.34375q-1.828125 2.96875 -5.515625 4.796875q4.765625 1.390625 7.3125 4.765625q2.5625 3.359375 2.5625 7.9375q0 3.6875 -1.5625 6.859375q-1.546875 3.171875 -3.84375 4.890625q-2.28125 1.71875 -5.75 2.59375q-3.453125 0.875 -8.453125 0.875l-20.015625 0zm6.9375 -30.4375l11.359375 0q4.609375 0 6.625 -0.609375q2.640625 -0.78125 3.984375 -2.609375q1.34375 -1.828125 1.34375 -4.578125q0 -2.625 -1.25 -4.609375q-1.25 -1.984375 -3.578125 -2.71875q-2.328125 -0.734375 -7.984375 -0.734375l-10.5 0l0 15.859375zm0 24.25l13.078125 0q3.359375 0 4.71875 -0.25q2.40625 -0.4375 4.015625 -1.4375q1.609375 -1.0 2.640625 -2.90625q1.046875 -1.921875 1.046875 -4.4375q0 -2.9375 -1.515625 -5.09375q-1.5 -2.171875 -4.171875 -3.046875q-2.65625 -0.875 -7.671875 -0.875l-12.140625 0l0 18.046875zm76.69055 -46.296875l6.953125 0l0 30.328125q0 7.90625 -1.796875 12.5625q-1.78125 4.65625 -6.453125 7.578125q-4.671875 2.90625 -12.265625 2.90625q-7.375 0 -12.0625 -2.53125q-4.6875 -2.546875 -6.703125 -7.359375q-2.0 -4.828125 -2.0 -13.15625l0 -30.328125l6.9375 0l0 30.28125q0 6.84375 1.265625 10.09375q1.28125 3.234375 4.375 4.984375q3.109375 1.75 7.578125 1.75q7.65625 0 10.90625 -3.46875q3.265625 -3.46875 3.265625 -13.359375l0 -30.28125zm18.439575 52.484375l0 -52.484375l7.125 0l27.578094 41.203125l0 -41.203125l6.65625 0l0 52.484375l-7.125 0l-27.56247 -41.25l0 41.25l-6.671875 0zm66.39273 0l0 -46.296875l-17.296875 0l0 -6.1875l41.609375 0l0 6.1875l-17.375 0l0 46.296875l-6.9375 0zm65.86987 -52.484375l6.953125 0l0 30.328125q0 7.90625 -1.796875 12.5625q-1.78125 4.65625 -6.453125 7.578125q-4.671875 2.90625 -12.265625 2.90625q-7.375 0 -12.0625 -2.53125q-4.6875 -2.546875 -6.703125 -7.359375q-2.0 -4.828125 -2.0 -13.15625l0 -30.328125l6.9375 0l0 30.28125q0 6.84375 1.265625 10.09375q1.28125 3.234375 4.375 4.984375q3.109375 1.75 7.578125 1.75q7.65625 0 10.90625 -3.46875q3.265625 -3.46875 3.265625 -13.359375l0 -30.28125z" fill-rule="nonzero"/></g></svg>