<svg version="1.1" viewBox="0.0 0.0 960.0 188.9763779527559" fill="none" stroke="none" stroke-linecap="square" stroke-miterlimit="10" xmlns:xlink="http://www.w3.org/1999/xlink" xmlns="http://www.w3.org/2000/svg"><clipPath id="g230b9335807_0_20.0"><path d="m0 0l960.0 0l0 188.97638l-960.0 0l0 -188.97638z" clip-rule="nonzero"/></clipPath><g clip-path="url(#g230b9335807_0_20.0)"><path fill="#ffffff" d="m0 0l960.0 0l0 188.97638l-960.0 0z" fill-rule="evenodd"/><path fill="#000000" d="m1.0498687E-6 -2.1548556E-4l960.0 0l0 188.97638l-960.0 0z" fill-rule="evenodd"/><path fill="#ffffff" d="m445.3694 111.19197l-12.859375 -33.203125l4.75 0l8.640625 24.125q1.046875 2.890625 1.734375 5.4375q0.78125 -2.71875 1.796875 -5.4375l8.96875 -24.125l4.484375 0l-13.0 33.203125l-4.515625 0zm21.457825 0l0 -33.203125l12.53125 0q3.296875 0 5.046875 0.3125q2.453125 0.40625 4.09375 1.5625q1.65625 1.140625 2.65625 3.203125q1.015625 2.046875 1.015625 4.515625q0 4.25 -2.703125 7.1875q-2.6875 2.921875 -9.734375 2.921875l-8.515625 0l0 13.5l-4.390625 0zm4.390625 -17.421875l8.59375 0q4.25 0 6.03125 -1.578125q1.796875 -1.59375 1.796875 -4.46875q0 -2.078125 -1.046875 -3.5625q-1.046875 -1.484375 -2.78125 -1.96875q-1.109375 -0.28125 -4.09375 -0.28125l-8.5 0l0 11.859375zm26.50467 17.421875l0 -33.203125l4.515625 0l17.43753 26.0625l0 -26.0625l4.21875 0l0 33.203125l-4.515625 0l-17.43753 -26.09375l0 26.09375l-4.21875 0z" fill-rule="nonzero"/></g></svg>